<?xml version="1.0" encoding="utf-8"?>
<!-- Generator: Adobe Illustrator 16.0.0, SVG Export Plug-In . SVG Version: 6.00 Build 0)  -->
<!DOCTYPE svg PUBLIC "-//W3C//DTD SVG 1.1//EN" "http://www.w3.org/Graphics/SVG/1.1/DTD/svg11.dtd">
<svg version="1.1" xmlns="http://www.w3.org/2000/svg" xmlns:xlink="http://www.w3.org/1999/xlink" x="0px" y="0px" width="612px"
	 height="792px" viewBox="0 0 612 792" enable-background="new 0 0 612 792" xml:space="preserve">
<g id="pants">
	<path fill="#AFB2B2" stroke="#959797" stroke-miterlimit="10" d="M156.98,733.571c0,0,4.542-0.769,4.812,3.214
		c0.269,3.979,7.489,7.345,7.489,7.345s19.65,11.274,43.135,10.441c23.488-0.834,32.298-2.23,32.298-2.23v6.546
		c0,0-27.929,5.237-48.008,2.619c-20.075-2.619-27.494-8.729-32.731-10.912c-5.238-2.183-7.856-6.98-7.856-6.98L156.98,733.571z"/>
	<path fill="#56595A" stroke="#3A3D3F" stroke-miterlimit="10" d="M184.243,682.001c0,0-15.469,14.23-21.563,26.45
		c-6.094,12.217-2.812,27.216-2.812,27.216s5.681,7.938,13.416,10.466c8.981,2.934,20.733,0.537,29.604,0.786
		c16.514,0.467,17.919,0,17.919,0s5.627-12.654,7.031-21.563c1.406-8.907,0-23.439,0-23.439L184.243,682.001z"/>
	<path fill="#3A3D3F" d="M221.468,714.805l-44.96-24.983c-4.787,5.184-10.611,12.177-13.828,18.63
		c-6.094,12.217-2.812,27.216-2.812,27.216s5.681,7.938,13.416,10.466c4.651,1.52,10.039,1.604,15.391,1.371
		c5.038-4.977,7.29-12.217,7.29-12.217s3.006-17.635,9.737-18.417C212.433,716.085,221.468,714.805,221.468,714.805z"/>
	<path fill="#AFB2B2" stroke="#959797" stroke-miterlimit="10" d="M304.982,723.466c0,0-2.558-0.005-4.269,2.551
		c-1.711,2.557-0.86,4.688-0.86,4.688l2.2,7.939c0,0,11.082,4.285,24.814,4.14c13.73-0.145,20.903-4.225,28.92-3.186
		c8.016,1.042,35.971,2.326,42.809,0.615c6.835-1.711,14.35-6.475,14.35-6.475s-1.797-11.363-4.923-12.294
		c-3.127-0.925-5.784-2.93-5.784-2.93L304.982,723.466z"/>
	<path fill="#56595A" stroke="#3A3D3F" stroke-miterlimit="10" d="M301.393,684.515c0,0-0.24,0.531-0.614,1.473
		c-1.761,4.409-6.529,17.822-3.741,27.72c3.38,12.011,6.419,14.883,6.419,14.883s18.616,8.454,28.475,5.788
		c9.859-2.669,45.127-1.487,57.139-0.409c12.012,1.079,20.805-5.712,20.805-5.712s2.18-15.044-10.174-20.801
		c-12.35-5.757-26.509-2.559-34.204-5.978c-7.698-3.421-28.533-19.478-28.533-19.478s-5.488,9.562-17.312,9.893
		C307.826,692.231,301.393,684.515,301.393,684.515z"/>
	<path fill="#3A3D3F" d="M369.826,702.699c-1.596-0.272-3.053-0.655-4.329-1.221c-7.698-3.421-28.533-19.478-28.533-19.478
		s-5.488,9.562-17.312,9.893c-11.826,0.338-18.26-7.379-18.26-7.379s-0.24,0.531-0.614,1.473c-1.761,4.409-6.529,17.822-3.741,27.72
		c3.38,12.011,6.419,14.883,6.419,14.883s18.616,8.454,28.475,5.788c1.58-0.431,3.818-0.758,6.502-1.001
		c5.468-2.312,10.006-4.921,12.965-7.851C359.791,717.217,365.85,708.936,369.826,702.699z"/>
	<path fill="#603913" stroke="#44250E" stroke-miterlimit="10" d="M281.083,552.689c26.329,68.224-1.271,153.381-1.271,153.381
		s21.27,17.054,50.281,11.623c34.928-6.539,33.812-18.407,33.812-18.407s-8.354-103.402-13.54-217.697
		c-0.28-6.176-0.396-12.536-0.435-19.394h-78.043"/>
	<path fill="#44250E" d="M279.812,706.07c0,0,11.786,9.44,29.771,12.034c7.057-19.519,12.663-44.235,10.399-70.592
		c-5.694-66.336-37.466-106.57-37.466-106.57l-1.434,11.747C307.412,620.913,279.812,706.07,279.812,706.07z"/>
	<path fill="#603913" stroke="#44250E" stroke-miterlimit="10" d="M274.504,454.748l-7.182,2.797l-45.854-9.879
		c2.268,7.522-9.691,7.333-14.349,31.47c-0.018,0.093,0.057,0.182,0.084,0.273l4.145,114.17l-5.466,1.523l1.376,10.659
		l-48.028,91.555c0,0-4.729,12.345,25.951,25.331c20.768,8.791,43.366,6.55,47.26,0c4.673-7.852,41.538-84.817,44.201-90.587
		c2.641-5.732,26.983-61.166,29.274-82.277"/>
	<path fill="#603913" stroke="#44250E" stroke-miterlimit="10" d="M205.588,716.9c0,0-5.943,0.476-10.797,4.016
		c-4.852,3.539-4.852,3.539-4.852,3.539l-19.559-9.65"/>
	<path fill="#603913" stroke="#44250E" stroke-miterlimit="10" d="M281.083,552.689"/>
	<path fill="#44250E" d="M351.625,504.081c-0.435-8.647-0.859-13.669-1.259-22.492c-0.382-8.388,0,9.861,0,0
		c0,0-5.122-42.838-85.479-43.755c-54.674-0.624-55.894,31.588-57.769,41.302c-0.018,0.093,0.057,0.182,0.084,0.273l4.145,114.17
		l-5.466,1.523l1.376,10.659l-48.028,91.555c0,0-0.159,3.093,1.176,7.235c2.41,4.691,8.647,11.149,24.105,17.802
		c3.837-3.297-3.312-17.432,1.843-21.124c1.493-10.217,17.398-20.443,30.772-31.894c17.62-15.092-6.767-57.884-3.259-58.672
		c3.509-0.785,16.686-0.1,12.162-2.203c-4.521-2.102-6.183-8.73-6.183-8.73s8.347-5.585,8.224-12.857
		c-0.122-7.275,1.379-79.305,1.379-79.305s0,0,5.984,1.682c5.986,1.681,32.232,9.749,32.232,9.749
		c9.463,1.532,29.891-3.084,38.248-6.099C327.656,516.158,338.478,512.203,351.625,504.081z"/>
	<path fill="#56595A" stroke="#3A3D3F" stroke-miterlimit="10" d="M200.418,718.104c0,0,25.884-8.255,38.104,7.976
		c12.221,16.229,4.012,27.136,4.012,27.136s-32.161,3.052-49.687,0c-17.525-3.056-26.672-11.418-26.672-11.418"/>
	<g>
		<path fill="#3A3D3F" d="M205.883,716.848c1.826-0.213,3.811-0.461,5.735-0.711C209.475,716.288,207.544,716.556,205.883,716.848z"
			/>
		<path fill="#3A3D3F" d="M194.791,720.916l-28.616,20.882c0,0,1.572,1.422,4.612,3.299c0.806,0.397,1.638,0.754,2.497,1.036
			c2.325,0.76,1.81-4.556,6.338-10.061c4.528-5.504,14.104-11.198,14.104-11.198s5.213-7.002,11.862-7.974
			C202.451,717.471,194.791,720.916,194.791,720.916z"/>
	</g>
	<path fill="#3A3D3F" d="M177.445,728.432c0,0,0.659,15.187,11.229,19.072c17.229,6.34,39.789,7.151,39.789,7.151
		s-15.616,2.103-32.384-1.056c-16.77-3.158-28.684-10.812-28.684-10.812L177.445,728.432z"/>
</g>
<g id="torso">
	<path fill="#EADBCF" stroke="#BEB1A8" stroke-miterlimit="10" d="M419.233,164.695c-3.065-6.222-5.851-8.606-7.233-12.651
		c0,0-4.443-7.979-5.982-10.493c-1.515-2.479-3.382-11.033-1.748-14.353c0.657-1.334,4.599-2.768,7.668-0.909
		c3.258,1.972,3.252,7.905,3.252,7.905l1.581,2.273c1.7,1.311,2.337,3.649,2.337,3.649s0,0,3.511-8.431
		c3.515-8.432-7.618-27.025-1.446-31.206c6.17-4.181,23.305-1.746,27.823,5.053c4.518,6.798,6.036,36.49,6.036,36.49
		s-1.563,11.707-2.077,14.515c-1.098,5.971-2.346,10.44-5.027,16.011c-4.25,8.817-8.576,32.462-8.576,32.462l-26.38-4.286
		C412.971,200.726,422.555,171.439,419.233,164.695z"/>
	<path fill="#FFCD29" stroke="#AD9129" stroke-miterlimit="10" d="M318.712,251.587c0,0,20.122-5.069,35.457-5.314
		c15.34-0.244,29.49,2.746,29.49,2.746s-0.199-4.454,1.643-6.154c1.84-1.703,5.333,0.428,5.333,0.428s15.114-17.661,16.492-33.434
		c2.023-23.202-0.812-27.801-0.812-27.801s21.053-10.878,34.813-6.807c13.76,4.066,18.238,8.493,18.238,8.493
		s-33.684,97.133-39.242,103.158c0,0-48.01,7.04-74.991,14.115c-26.981,7.066-40.604,9.301-40.604,9.301"/>
	<path fill="#AD9129" d="M443.545,176.854c0.158,2.389,0.237,4.995,0.176,7.717c-0.258,11.555-14.058,63.071-22.362,79.741
		c-4.396,8.834-12.433,17.558-19.02,23.809c9.983-1.63,16.867-2.64,16.867-2.64c5.467-5.924,38.594-101.442,38.594-101.442
		S454.204,180.484,443.545,176.854z"/>
	<g>
		<path fill="#FFCD29" d="M283.663,498.084c-13.287-0.001-26.725-4.106-43.57-13.312l-1.859-1.015
			c-8.087-4.413-27.026-14.749-32.251-18.282l-0.33-0.223l1.785-4.608c0.008-0.126,0.012-0.187,0.021-0.245
			c11.288-97.022-1.923-197.039-2.058-198.038l-0.01-0.072l0.011-0.072c0.049-0.313,1.316-7.772,10.782-16.755
			c6.724-6.379,37.074-7.067,49.811-7.067c21.76,0,43.707,1.811,48.923,4.037c10.27,4.386,24.049,16.986,24.187,17.113
			c0.271,0.277,6.225,7.62,10.329,119.101c0.169,4.592,0.322,9.009,0.47,13.267c1.262,36.41,2.096,60.463,8.806,82.753l0.071,0.236
			l-0.144,0.199c-4.305,6.003-22.246,12.679-37.743,16.17c-3.316,0.748-6.479,1.537-9.536,2.3
			C302.057,495.891,293.271,498.084,283.663,498.084C283.664,498.084,283.664,498.084,283.663,498.084z"/>
		<path fill="#AD9129" d="M265.995,238.893c21.847,0,43.59,1.805,48.727,3.997c10.31,4.403,24.045,17.021,24.045,17.021
			s6.022,6.181,10.167,118.751c1.596,43.336,1.771,71.146,9.297,96.146c-4.297,5.992-22.428,12.59-37.447,15.974
			c-13.596,3.063-24.488,6.802-37.12,6.802c-11.748,0-25.001-3.234-43.33-13.251c-7.005-3.828-28.431-15.459-34.069-19.272
			l1.669-4.309c0.009-0.098,0.009-0.193,0.021-0.285c11.428-98.223-2.058-198.173-2.058-198.173s1.181-7.501,10.632-16.47
			C221.906,240.721,244.003,238.893,265.995,238.893 M265.995,237.893c-12.797,0-43.301,0.702-50.155,7.205
			c-9.587,9.099-10.881,16.72-10.931,17.041l-0.023,0.144l0.02,0.145c0.135,0.999,13.337,100.958,2.056,197.924
			c-0.007,0.049-0.012,0.114-0.017,0.183l-1.613,4.165l-0.288,0.743l0.66,0.446c5.244,3.547,23.51,13.516,32.289,18.306l1.861,1.017
			c16.923,9.248,30.435,13.373,43.81,13.373c9.668,0,18.483-2.2,27.816-4.529c3.055-0.763,6.213-1.551,9.523-2.297
			c7.883-1.776,16.229-4.349,22.901-7.058c5.447-2.213,12.496-5.623,15.139-9.309l0.287-0.4l-0.142-0.471
			c-6.692-22.229-7.525-46.256-8.786-82.627c-0.147-4.259-0.301-8.676-0.47-13.268c-4.042-109.786-9.806-118.752-10.45-119.413
			l-0.019-0.02l-0.021-0.019c-0.566-0.52-13.98-12.785-24.329-17.204C309.846,239.722,287.812,237.893,265.995,237.893
			L265.995,237.893z"/>
	</g>
	<path fill="#AD9129" d="M258.044,492.564c-12.25-15.988-28.366-45.313-29.716-93.351c-0.929-33.028,15.556-99.533,15.556-99.533
		l-34.518-3.04c0,0,0,0.001,0,0.002c3.022,37.652,5.887,101.087-1.412,163.824c-0.013,0.092-0.013,0.188-0.021,0.285l-1.669,4.309
		c5.639,3.813,27.064,15.444,34.069,19.272C246.825,487.881,252.668,490.561,258.044,492.564z"/>
	<path fill="#AD9129" d="M222.102,243.326c-1.697,1.611-8.69,5.669-9.895,7.147c0,0-2.746,2.458-8.137,9.459
		c3.862-0.524,6.633-0.696,8.605,1.044c6.144,5.42,3.087-11.802,3.853-15.153c0.767-3.349,12.684,6.203,18.472,6.316
		c5.793,0.114,20.084-1.153,20.084-1.153l1.988-11.988C238.311,239.453,226.751,238.918,222.102,243.326z"/>
	<path fill="#EADBCF" stroke="#BEB1A8" stroke-miterlimit="10" d="M298.749,240.888c0,0,20.091,12.002,2.354,19.326
		c-16.548,6.831-27.784,1.712-39.9-5.459c-6.551-3.876-11.052-14.272-11.052-14.272l5.636-0.613c0,0,2.44-11.061,4.37-19.302
		c1.932-8.241,3.655-18.424,3.655-18.424l33.352,9.493c0,0-4.069,16.268-2.313,20.938
		C296.607,237.246,298.749,240.888,298.749,240.888z"/>
	<path fill="#BEB1A8" d="M273.973,217.687l-11.926-5.991c-0.56,2.848-1.211,5.981-1.89,8.873c-1.93,8.241-4.37,19.302-4.37,19.302
		l-5.636,0.613c0,0,3.036,7.003,7.746,11.656c0-0.002,6.114-5.771,5.055-8.637c-1.061-2.867,3.872-3.656,8.882-5.032
		c5.012-1.374,1.93-16.49,1.93-16.49L273.973,217.687z"/>
	<path fill="#EADBCF" stroke="#BEB1A8" stroke-miterlimit="10" d="M111.03,170.403c2.221-6.571,4.668-9.301,5.508-13.492
		c0,0,3.355-8.493,4.55-11.188c1.177-2.657,1.903-11.381-0.154-14.458c-0.826-1.237-4.921-2.139-7.72,0.106
		c-2.971,2.382-2.185,8.265-2.185,8.265l-1.269,2.461c-1.513,1.522-1.836,3.924-1.836,3.924s0,0-4.591-7.897s4-27.792-2.667-31.125
		s-23.333,1.333-26.918,8.667s-1.186,36.967-1.186,36.967s3.087,11.4,3.967,14.117c1.873,5.775,3.696,10.041,7.088,15.211
		c5.373,8.182,12.769,31.053,12.769,31.053l25.587-7.717C121.974,205.297,108.623,177.525,111.03,170.403z"/>
	<path fill="#FFCD29" stroke="#AD9129" stroke-miterlimit="10" d="M222.102,243.326c0,0-20.614-2.38-35.848-0.607
		c-15.238,1.775-28.873,6.599-28.873,6.599s-0.389-4.441-2.437-5.884c-2.048-1.446-5.231,1.126-5.231,1.126
		s-17.305-15.521-20.743-30.976c-5.057-22.734-2.85-27.666-2.85-27.666s-22.301-8.016-35.408-2.171
		c-13.105,5.84-16.963,10.817-16.963,10.817s46.162,91.861,52.465,97.103c0,0,48.518,0.668,76.195,4.135
		c27.678,3.458,41.476,3.881,41.476,3.881"/>
	<path fill="#AD9129" d="M88.527,185.653c0.159,2.389,0.423,4.982,0.841,7.673c1.774,11.42,22.227,60.675,32.65,76.108
		c5.52,8.179,14.634,15.77,21.986,21.102c-10.111-0.304-17.069-0.4-17.069-0.4c-6.197-5.153-51.595-95.488-51.595-95.488
		S78.438,190.653,88.527,185.653z"/>
	<g id="head">
		<path fill="#EADBCF" stroke="#BEB1A8" stroke-miterlimit="10" d="M326.672,226.115c-3.87,5.033-50.954,15.242-74.916-7.627
			c-25.03-23.887-22.434-82.722-12.665-99.672c17.168-29.78,70.107-21.476,89.775-5.668
			C348.535,128.958,330.537,221.079,326.672,226.115z"/>
		<rect x="243" y="156.23" fill="#010101" width="26.521" height="3.588"/>
		<path d="M305.974,162.709c0,0-5.522-1.778-12.244,1.339c-4.702,2.18-7.743,6.442-7.743,6.442l1.851,0.597
			c0,0,1.604-1.888,8.141-4.486c5.367-2.134,9.045-0.947,9.045-0.947L305.974,162.709z"/>
		<path d="M323.6,164.101c0,0,5.289-1.302,11.211,1.687c0.861,0.437,1.643,0.944,2.35,1.479l-0.24,2.874
			c-1.055-0.631-2.494-1.388-4.443-2.236c-4.762-2.081-8.287-1.211-8.287-1.211L323.6,164.101z"/>
		<path fill="#3C2415" stroke="#240E06" stroke-miterlimit="10" d="M310.415,141.755c0,0-8.367-3.708-19.433,0.06
			c-7.738,2.639-12.874,8.13-12.874,8.13l2.459,1.934c0,0,2.832-2.697,13.522-5.685c8.77-2.451,14.347,0.022,14.347,0.022
			L310.415,141.755z"/>
		<path fill="#3C2415" stroke="#240E06" stroke-miterlimit="10" d="M321.405,142.698c0,0,6.202-2.637,16.019,4.363
			c2.122,1.511,3.106,3.53,3.106,3.53l-1.321,3.47c0,0-1.597-2.845-4.65-4.379c-7.162-3.6-12.088-2.657-12.088-2.657
			L321.405,142.698z"/>
		<g id="hair">
			<path fill="#3C2415" stroke="#240E06" stroke-miterlimit="10" d="M336.334,207.819c0.686-4.596,5.18-11.522,5.18-11.522
				s-3.83-2.391-2.771-5.637c1.06-3.247,1.635-3.824,0.836-6.228c-0.798-2.409-3.621-1.818-3.621-1.818s-5.023,2.463-6.482,0.813
				c-1.465-1.653-2.693-3.332-2.693-3.332s-3.135,4.078-5.426,4.078c-2.293-0.006-11.098-4.72-15.237-0.487
				c-4.141,4.229-9.294,1.927-9.294,1.927s-0.798,3.898,0.801,5.275c1.597,1.375,2.743,1.377,2.743,1.377s-5.835,3.649-7.4,7.892
				c-1.563,4.239-1.7,5.316-1.7,5.316s-10.569,2.722-11.401-2c-0.831-4.718,2.608-5.855,2.608-5.855s-2.927-4.204-6.987-1.506
				c-3.656,2.433-3.574,5.798-5.916,3.694c-2.338-2.102-1.51-7.276-5.306-8.758c-1.088-0.425-2.544-0.554-4.064-0.532
				c0.472-1.881,1.205-3.484,1.205-3.484s1.39-6.186-1.247-7.794c-2.632-1.612-3.542-4.363-3.542-4.363s-1.728,4.006-6.845,2.582
				c-5.121-1.424-7.93-7.998-6.198-14.298c1.733-6.299,7.342-3.194,10.897-3.99c3.551-0.794,4.249-4.466,4.249-4.466
				s-2.296,1.145-4.958-0.399c-2.666-1.551-4.31-7.979-0.603-11.362c3.706-3.384,2.603-13.747,2.603-13.747s3.915,3.051,8.701,4.373
				c4.787,1.322,9.979-5.216,9.979-5.216s-5.247,0.936-7.249-3.643c-2.004-4.577,7.65-11.801,15.364-12.513
				c7.718-0.713,16.45,10.271,16.45,10.271s1.504-6.989,13.619-8.359c12.115-1.372,24.296,16.689,24.296,16.689
				s9.85,0.714,8.467,7.051c-1.839,8.415,9.927,16.822,17.832,9.583c6.962-6.376,4.002-12.302,4.002-12.302
				s-7.858,6.631-8.153,0.261c-0.289-6.373,16.267-15.787,16.267-15.787s-9.314-4.371-5.942-13.253
				c3.373-8.884,7.123-20.071,0.422-26.548c-6.701-6.479-12.653-2.313-12.858,1.32c-0.207,3.629,5.292,4.521,5.292,4.521
				s-1.389-4.118,1.1-4.736c2.486-0.616,2.695,5.088-1.025,6.953c-3.716,1.865-15.764-5.743-12.764-13.57
				c2.997-7.827,14.027-9.131,14.027-9.131s-13.956-2.042-14.656-9.851c-1.664-18.574-15.6-13.129-15.6-13.129
				s3.224,4.731-1.259,8.08c-4.481,3.348-14.785-6.495-7.31-13.94c4.049-4.033,11.195-1.842,11.195-1.842
				s-11.049-10.221-19.886-5.638c-8.836,4.585-11.706,10.299-11.706,10.299s-0.357-8.578-7.561-12.821
				c-7.204-4.241-13.177-1.641-15.672,2.704c-2.495,4.348,3.589,8.34,3.589,8.34s-2.471-6.843,2.004-7.083
				c4.476-0.24,4.213,7.715-0.889,9.198c-5.101,1.483-7.331-2.128-12.792-7.36c-5.462-5.233-18.635-8.739-26.729-2.537
				c-8.094,6.199-5.873,15.406-5.873,15.406s-11.069,2.217-13.293-5.744c-2.224-7.965,8.107-14.284,8.107-14.284
				s-23.364-6.505-25.638,13.254c-1.156,10.039,2.858,15.368,2.858,15.368s-8.199-4.12-15.815-1.962
				c-8.032,2.271-13.896,14.654-10.955,21.804c2.94,7.152,12.502,13.511,18.235,5.198c3.635-5.272-2.467-9.337-2.467-9.337
				s-2.732,6.702-5.479,3.477c-3.72-4.366,2.758-11.067,9.841-7.82c7.082,3.245,6.438,10.717,1.581,15.429
				c-4.854,4.708-12.559,11.372-14.073,20.591c-1.521,9.213,5.462,14.512,5.462,14.512s-4.479,8.294-10.714,5.838
				c-6.234-2.452-5.48-5.809-5.48-5.809s-3.496,6.958,1.343,12.19c4.842,5.231,15.782,5.749,15.782,5.749s5.082,7.222,0.344,14.796
				c-4.741,7.577-8.101,9.932-8.101,9.932s6.593,0.668,9.689,4.246c3.74,4.322,5.45,7.386,1.34,14.055
				c-3.37,5.462-12.556-1.019-12.556-1.019s0.1,12.186,7.558,14.065c7.457,1.878,10.319-0.729,13.93,6.334
				c3.502,6.854-1.899,7.847-0.699,13.16c1.639,7.266,9.754,6.049,9.754,6.049s0.963-9.421,6.976-8.313
				c7.201,1.325,10.53,6.222,8.659,10.571c-1.878,4.346-10.588,8.684-10.588,8.684s4.212,7.718,8.945,4.494
				c4.728-3.225,6.346-3.346,8.082-1.23c1.735,2.118,10.701-3.341,10.701-3.341s0.249-1.101,0.895-2.587
				c1.366,1.771,3.722,4.338,6.87,5.922c5.168,2.597,10.23,0.479,10.23,0.479s4.559,1.26,4.099,4.449
				c-0.461,3.185-3.097,3.868-3.097,3.868s6.765,2.872,10.033-0.384c3.269-3.257,2.928-4.863,2.928-4.863s2.854,4.016,7.785,3.912
				c4.928-0.104,8.422-4.011,8.422-4.011s2.551,4.076,6.863,3.946c4.313-0.127,8.79-3.899,8.79-3.899s1.833-0.227,2.747,1.378
				c0.913,1.606,0.115,4.074,0.115,4.074s4.35-1.544,4.123-3.951c-0.221-2.407-0.213-3.837-0.213-3.837s2.944-1.387,5.433-5.875
				C332.287,220.063,335.649,212.415,336.334,207.819z M326.446,219.135c0,0-2.634-1.04-8.137-0.933
				c-5.499,0.104-12.87,3.858-12.87,3.858s-0.433,0.93-1.21-4.377c-0.778-5.3,2.654-16.121,6.927-20.568
				c4.275-4.45,22.113-4.961,22.113-4.961s0.553,4.876-0.978,13.634C330.758,214.546,326.446,219.135,326.446,219.135z"/>
			<path fill="#240E06" d="M227.978,206.745c7.201,1.325,10.53,6.222,8.659,10.571c-1.878,4.346-10.588,8.684-10.588,8.684
				s4.212,7.718,8.945,4.494c4.728-3.225,6.346-3.346,8.082-1.23c1.735,2.118,10.701-3.341,10.701-3.341s0.249-1.101,0.895-2.587
				c1.366,1.771,3.722,4.338,6.87,5.922c5.168,2.597,10.23,0.479,10.23,0.479s4.559,1.26,4.099,4.449
				c-0.461,3.185-3.097,3.868-3.097,3.868s6.765,2.872,10.033-0.384c3.269-3.257,2.928-4.863,2.928-4.863s2.854,4.016,7.785,3.912
				c4.928-0.104,8.422-4.011,8.422-4.011s2.551,4.076,6.863,3.946c0.619-0.019,1.243-0.117,1.857-0.266
				c-0.141-0.071-0.271-0.156-0.418-0.219c-5.617-2.439-4.992-9.895-4.992-9.895s-9.522,5.952-13.654,1.518
				s-8.167-0.812-12.965,0.042c-4.799,0.86-3.921-9.52-3.921-9.52s-7.5,3.786-13.179,3.601c-5.681-0.185-0.455-6.049-6.116-7.957
				c-3.978-1.347-11.705,4.445-11.705,4.445s1.133-4.74,3.027-9.742c1.894-4.998-2.05-10.48-9.161-10.785
				c-7.108-0.305-1.441-13.325-1.441-13.325s-7.847,5.395-13.804,0.532c-5.957-4.861-0.258-15.998-0.258-15.998
				s7.016-6.744,6.051-14.112c-0.965-7.371-6.361-14.28-6.361-14.28s6.243,2.436,10.722,0.954
				c4.481-1.487,5.216-11.306,5.216-11.306s-2.964,4.97-9.137,2.393c-6.173-2.579-5.771-9.882-5.771-9.882s8.988-2.097,12.174-9.363
				c3.184-7.269-2.056-15.42-2.056-15.42s3.76,1.807,9.042,0.581c5.285-1.226,7.604-7.701,7.604-7.701s-7.086-0.759-8.003-8.224
				c-0.919-7.46,8.945-11.572,20.155-9.009c11.936,2.731,19.91-4.864,18.877-17.586c-0.913-11.192-16.948-12.715-16.948-12.715
				s4.463,6.906,0.911,12.125c-3.557,5.214-12.861-5.06-15.08-15.509c-1.343-6.331,4.354-10.998,9.058-13.698
				c-4.33-0.282-8.737,0.589-12.208,3.249c-8.094,6.199-5.873,15.406-5.873,15.406s-11.069,2.217-13.293-5.744
				c-2.224-7.965,8.107-14.284,8.107-14.284s-23.364-6.505-25.638,13.254c-1.156,10.039,2.858,15.368,2.858,15.368
				s-8.199-4.12-15.815-1.962c-8.032,2.271-13.896,14.654-10.955,21.804c2.94,7.152,12.502,13.511,18.235,5.198
				c3.635-5.272-2.467-9.337-2.467-9.337s-2.732,6.702-5.479,3.477c-3.72-4.366,2.758-11.067,9.841-7.82
				c7.082,3.245,6.438,10.717,1.581,15.429c-4.854,4.708-12.559,11.372-14.073,20.591c-1.521,9.213,5.462,14.512,5.462,14.512
				s-4.479,8.294-10.714,5.838c-6.234-2.452-5.48-5.809-5.48-5.809s-3.496,6.958,1.343,12.19c4.842,5.231,15.782,5.749,15.782,5.749
				s5.082,7.222,0.344,14.796c-4.741,7.577-8.101,9.932-8.101,9.932s6.593,0.668,9.689,4.246c3.74,4.322,5.45,7.386,1.34,14.055
				c-3.37,5.462-12.556-1.019-12.556-1.019s0.1,12.186,7.558,14.065c7.457,1.878,10.319-0.729,13.93,6.334
				c3.502,6.854-1.899,7.847-0.699,13.16c1.639,7.266,9.754,6.049,9.754,6.049S221.965,205.637,227.978,206.745z"/>
			<path fill="#240E06" d="M260.44,122.239c1.356,6.594,4.917,7.14,11.092,8.062c0.313,0.048,0.634,0.077,0.957,0.107
				c1.203-1.103,1.958-2.057,1.958-2.057s-5.247,0.936-7.249-3.643c-2.004-4.577,7.65-11.801,15.364-12.513
				c7.718-0.713,16.45,10.271,16.45,10.271s1.504-6.989,13.619-8.359c12.115-1.372,24.296,16.689,24.296,16.689
				s9.85,0.714,8.467,7.051c-1.839,8.415,9.927,16.822,17.832,9.583c4.048-3.708,4.739-7.26,4.61-9.585
				c-2.707,4.126-6.823,9.215-9.955,7.835c-5.094-2.25-6.561-15.432-11.525-19.794c-4.967-4.363-12.195-4.259-10.057-12.829
				c2.142-8.573,12.327-4.077,12.327-4.077s-5.198-12.568-13.284-10.098c-8.089,2.47-10.461,7.814-10.461,7.814
				s-1.23-7.464-7.193-9.835c-5.963-2.376-17.668,6.06-17.668,6.06s-3.86,3.347-9.818-2.133c-5.956-5.483-4.83-8.964-4.83-8.964
				s-4.257,10.944-9.975,12.42C269.675,105.719,259.087,115.648,260.44,122.239z"/>
		</g>
		<path d="M305.433,211.494c0,0,7.298,0.831,9.513,0c2.216-0.831,3.672-3.321,3.672-3.321l-0.248-3.804c0,0-4.008,1.951-6.344,2.254
			c-2.338,0.303-6.593,0-6.593,0V211.494z"/>
		<line fill="none" stroke="#010101" stroke-width="3" stroke-miterlimit="10" x1="294.02" y1="150.19" x2="333.291" y2="150.19"/>
		<path fill="none" stroke="#010101" stroke-width="3" stroke-miterlimit="10" d="M305.715,157.444c0,0,3.693-2.585,8.371-2.585
			s9.11,2.585,9.11,2.585"/>
		<path fill="#010101" d="M266.812,162.984c0.683-2.932,3.817-14.28,17.235-14.896c16.035-0.736,24.572,3.229,25.36,10.095
			c0.984,8.577-6.004,27.453-27.946,27.453C264.966,185.636,266.13,165.916,266.812,162.984z"/>
		<path fill="#010101" d="M266.812,162.984c0.683-2.932,3.817-14.28,17.235-14.896c16.035-0.736,24.572,3.229,25.36,10.095
			c0.984,8.577-6.004,27.453-27.946,27.453C264.966,185.636,266.13,165.916,266.812,162.984z"/>
		<path fill="#F1F2F2" d="M270.109,163.581c0.577-2.476,3.223-12.058,14.553-12.578c8.197-0.376,14.074,0.703,17.583,2.899
			c2.287,1.431-14.036-0.764-20.173,3.729c-12.55,9.188-5.121,24.228-6.922,22.886C268.973,175.913,269.663,165.498,270.109,163.581
			z"/>
		<rect x="343.562" y="156.23" fill="#010101" width="3.373" height="3.588"/>
		<path fill="#010101" d="M345.248,162.984c-0.425-2.932-2.375-14.28-10.729-14.896c-9.982-0.736-15.298,3.229-15.789,10.095
			c-0.612,8.577,3.739,27.453,17.397,27.453C346.398,185.636,345.674,165.916,345.248,162.984z"/>
		<path fill="#F1F2F2" d="M334.188,150.625c-8.632-0.636-13.227,2.791-13.651,8.728c-0.446,6.258,2.164,18.86,10.089,22.639
			c1.464,0.699-9.272-11.749-7.391-21.23c1.408-7.098,8-7.891,10.556-8.542C334.863,151.944,335.225,150.701,334.188,150.625z"/>
	</g>
</g>
</svg>
